# xmcd CD database file
#
# Track frame offsets:
#	150
#	17211
#	33827
#	62244
#	82852
#	109988
#	136622
#	154501
#	184715
#
# Disc length: 2742 seconds
#
# Revision: 1
# Processed by: cddbd v1.5.2PL0 Copyright (c) Steve Scherf et al.
# Submitted via: CDex 1.89
#
DISCID=650ab409
DTITLE=Jameson - Smooth Beats
DYEAR=2006
DGENRE=Jazz
TTITLE0=Kolliope - Oracles and Glands
TTITLE1=Garcia - Push It
TTITLE2=Karmacyde - Longer Days
TTITLE3=Stickleback - Bossa
TTITLE4=Booty Looters - Static
TTITLE5=Karmacyde - String Thing
TTITLE6=Barchie - Smokin Beats
TTITLE7=Price Cuts - Bass Tramp
TTITLE8=Eurosausage - Lickity Split
EXTD=YEAR: 2006
EXTT0=
EXTT1=
EXTT2=
EXTT3=
EXTT4=
EXTT5=
EXTT6=
EXTT7=
EXTT8=
PLAYORDER=
